<svg xmlns="http://www.w3.org/2000/svg" width="528" height="288" viewBox="0 0 528 288" role="img" aria-label="Commitchi pet for Cludes">
  <defs>
    <linearGradient id="shell" x1="0" y1="0" x2="1" y2="1">
      <stop offset="0" stop-color="#ff6eb4"/>
      <stop offset="1" stop-color="#ff9f43"/>
    </linearGradient>
  </defs>
  <rect x="0" y="0" width="528" height="288" rx="22" fill="#f1e8fb"/>
  <g transform="translate(14, 14)">
    <rect x="1" y="1" width="498" height="258" rx="26" fill="url(#shell)" stroke="#222" stroke-width="4"/>
    <rect x="16" y="16" width="468" height="228" rx="12" fill="#c8f569" stroke="#333" stroke-width="3"/>

    <text x="250" y="40" text-anchor="middle" font-family="'Courier New',monospace" font-size="15" font-weight="bold" letter-spacing="2" fill="#0f380f">COMMITCHI</text>

    
    <g>
      <rect x="61" y="79" width="9" height="9" fill="#8b5e3c"/><rect x="142" y="79" width="9" height="9" fill="#8b5e3c"/><rect x="52" y="88" width="9" height="9" fill="#8b5e3c"/><rect x="61" y="88" width="9" height="9" fill="#f4a460"/><rect x="70" y="88" width="9" height="9" fill="#8b5e3c"/><rect x="133" y="88" width="9" height="9" fill="#8b5e3c"/><rect x="142" y="88" width="9" height="9" fill="#f4a460"/><rect x="151" y="88" width="9" height="9" fill="#8b5e3c"/><rect x="52" y="97" width="9" height="9" fill="#8b5e3c"/><rect x="61" y="97" width="9" height="9" fill="#f4a460"/><rect x="70" y="97" width="9" height="9" fill="#f4a460"/><rect x="79" y="97" width="9" height="9" fill="#8b5e3c"/><rect x="88" y="97" width="9" height="9" fill="#8b5e3c"/><rect x="97" y="97" width="9" height="9" fill="#8b5e3c"/><rect x="106" y="97" width="9" height="9" fill="#8b5e3c"/><rect x="115" y="97" width="9" height="9" fill="#8b5e3c"/><rect x="124" y="97" width="9" height="9" fill="#8b5e3c"/><rect x="133" y="97" width="9" height="9" fill="#f4a460"/><rect x="142" y="97" width="9" height="9" fill="#f4a460"/><rect x="151" y="97" width="9" height="9" fill="#8b5e3c"/><rect x="43" y="106" width="9" height="9" fill="#8b5e3c"/><rect x="52" y="106" width="9" height="9" fill="#f4a460"/><rect x="61" y="106" width="9" height="9" fill="#f4a460"/><rect x="70" y="106" width="9" height="9" fill="#f4a460"/><rect x="79" y="106" width="9" height="9" fill="#f4a460"/><rect x="88" y="106" width="9" height="9" fill="#f4a460"/><rect x="97" y="106" width="9" height="9" fill="#f4a460"/><rect x="106" y="106" width="9" height="9" fill="#f4a460"/><rect x="115" y="106" width="9" height="9" fill="#f4a460"/><rect x="124" y="106" width="9" height="9" fill="#f4a460"/><rect x="133" y="106" width="9" height="9" fill="#f4a460"/><rect x="142" y="106" width="9" height="9" fill="#f4a460"/><rect x="151" y="106" width="9" height="9" fill="#f4a460"/><rect x="160" y="106" width="9" height="9" fill="#8b5e3c"/><rect x="34" y="115" width="9" height="9" fill="#8b5e3c"/><rect x="43" y="115" width="9" height="9" fill="#f4a460"/><rect x="52" y="115" width="9" height="9" fill="#f4a460"/><rect x="61" y="115" width="9" height="9" fill="#f4a460"/><rect x="70" y="115" width="9" height="9" fill="#f4a460"/><rect x="79" y="115" width="9" height="9" fill="#f4a460"/><rect x="88" y="115" width="9" height="9" fill="#f4a460"/><rect x="97" y="115" width="9" height="9" fill="#f4a460"/><rect x="106" y="115" width="9" height="9" fill="#f4a460"/><rect x="115" y="115" width="9" height="9" fill="#f4a460"/><rect x="124" y="115" width="9" height="9" fill="#f4a460"/><rect x="133" y="115" width="9" height="9" fill="#f4a460"/><rect x="142" y="115" width="9" height="9" fill="#f4a460"/><rect x="151" y="115" width="9" height="9" fill="#f4a460"/><rect x="160" y="115" width="9" height="9" fill="#f4a460"/><rect x="169" y="115" width="9" height="9" fill="#8b5e3c"/><rect x="34" y="124" width="9" height="9" fill="#8b5e3c"/><rect x="43" y="124" width="9" height="9" fill="#f4a460"/><rect x="52" y="124" width="9" height="9" fill="#f4a460"/><rect x="61" y="124" width="9" height="9" fill="#ffffff"/><rect x="70" y="124" width="9" height="9" fill="#000000"/><rect x="79" y="124" width="9" height="9" fill="#f4a460"/><rect x="88" y="124" width="9" height="9" fill="#f4a460"/><rect x="97" y="124" width="9" height="9" fill="#f4a460"/><rect x="106" y="124" width="9" height="9" fill="#f4a460"/><rect x="115" y="124" width="9" height="9" fill="#f4a460"/><rect x="124" y="124" width="9" height="9" fill="#f4a460"/><rect x="133" y="124" width="9" height="9" fill="#ffffff"/><rect x="142" y="124" width="9" height="9" fill="#000000"/><rect x="151" y="124" width="9" height="9" fill="#f4a460"/><rect x="160" y="124" width="9" height="9" fill="#f4a460"/><rect x="169" y="124" width="9" height="9" fill="#8b5e3c"/><rect x="34" y="133" width="9" height="9" fill="#8b5e3c"/><rect x="43" y="133" width="9" height="9" fill="#f4a460"/><rect x="52" y="133" width="9" height="9" fill="#f4a460"/><rect x="61" y="133" width="9" height="9" fill="#ffffff"/><rect x="70" y="133" width="9" height="9" fill="#000000"/><rect x="79" y="133" width="9" height="9" fill="#f4a460"/><rect x="88" y="133" width="9" height="9" fill="#f4a460"/><rect x="97" y="133" width="9" height="9" fill="#f4a460"/><rect x="106" y="133" width="9" height="9" fill="#f4a460"/><rect x="115" y="133" width="9" height="9" fill="#f4a460"/><rect x="124" y="133" width="9" height="9" fill="#f4a460"/><rect x="133" y="133" width="9" height="9" fill="#ffffff"/><rect x="142" y="133" width="9" height="9" fill="#000000"/><rect x="151" y="133" width="9" height="9" fill="#f4a460"/><rect x="160" y="133" width="9" height="9" fill="#f4a460"/><rect x="169" y="133" width="9" height="9" fill="#8b5e3c"/><rect x="34" y="142" width="9" height="9" fill="#8b5e3c"/><rect x="43" y="142" width="9" height="9" fill="#f4a460"/><rect x="52" y="142" width="9" height="9" fill="#f4a460"/><rect x="61" y="142" width="9" height="9" fill="#f4a460"/><rect x="70" y="142" width="9" height="9" fill="#f4a460"/><rect x="79" y="142" width="9" height="9" fill="#f4a460"/><rect x="88" y="142" width="9" height="9" fill="#f4a460"/><rect x="97" y="142" width="9" height="9" fill="#f4a460"/><rect x="106" y="142" width="9" height="9" fill="#f4a460"/><rect x="115" y="142" width="9" height="9" fill="#f4a460"/><rect x="124" y="142" width="9" height="9" fill="#f4a460"/><rect x="133" y="142" width="9" height="9" fill="#f4a460"/><rect x="142" y="142" width="9" height="9" fill="#f4a460"/><rect x="151" y="142" width="9" height="9" fill="#f4a460"/><rect x="160" y="142" width="9" height="9" fill="#f4a460"/><rect x="169" y="142" width="9" height="9" fill="#8b5e3c"/><rect x="34" y="151" width="9" height="9" fill="#8b5e3c"/><rect x="43" y="151" width="9" height="9" fill="#f4a460"/><rect x="52" y="151" width="9" height="9" fill="#f4a460"/><rect x="61" y="151" width="9" height="9" fill="#f4a460"/><rect x="70" y="151" width="9" height="9" fill="#f4a460"/><rect x="79" y="151" width="9" height="9" fill="#f4a460"/><rect x="88" y="151" width="9" height="9" fill="#ffe0b2"/><rect x="97" y="151" width="9" height="9" fill="#ff5d8f"/><rect x="106" y="151" width="9" height="9" fill="#ff5d8f"/><rect x="115" y="151" width="9" height="9" fill="#ffe0b2"/><rect x="124" y="151" width="9" height="9" fill="#f4a460"/><rect x="133" y="151" width="9" height="9" fill="#f4a460"/><rect x="142" y="151" width="9" height="9" fill="#f4a460"/><rect x="151" y="151" width="9" height="9" fill="#f4a460"/><rect x="160" y="151" width="9" height="9" fill="#f4a460"/><rect x="169" y="151" width="9" height="9" fill="#8b5e3c"/><rect x="34" y="160" width="9" height="9" fill="#8b5e3c"/><rect x="43" y="160" width="9" height="9" fill="#f4a460"/><rect x="52" y="160" width="9" height="9" fill="#f4a460"/><rect x="61" y="160" width="9" height="9" fill="#f4a460"/><rect x="70" y="160" width="9" height="9" fill="#f4a460"/><rect x="79" y="160" width="9" height="9" fill="#f4a460"/><rect x="88" y="160" width="9" height="9" fill="#f4a460"/><rect x="97" y="160" width="9" height="9" fill="#ff5d8f"/><rect x="106" y="160" width="9" height="9" fill="#ff5d8f"/><rect x="115" y="160" width="9" height="9" fill="#f4a460"/><rect x="124" y="160" width="9" height="9" fill="#f4a460"/><rect x="133" y="160" width="9" height="9" fill="#f4a460"/><rect x="142" y="160" width="9" height="9" fill="#f4a460"/><rect x="151" y="160" width="9" height="9" fill="#f4a460"/><rect x="160" y="160" width="9" height="9" fill="#f4a460"/><rect x="169" y="160" width="9" height="9" fill="#8b5e3c"/><rect x="43" y="169" width="9" height="9" fill="#8b5e3c"/><rect x="52" y="169" width="9" height="9" fill="#f4a460"/><rect x="61" y="169" width="9" height="9" fill="#f4a460"/><rect x="70" y="169" width="9" height="9" fill="#f4a460"/><rect x="79" y="169" width="9" height="9" fill="#f4a460"/><rect x="88" y="169" width="9" height="9" fill="#f4a460"/><rect x="97" y="169" width="9" height="9" fill="#f4a460"/><rect x="106" y="169" width="9" height="9" fill="#f4a460"/><rect x="115" y="169" width="9" height="9" fill="#f4a460"/><rect x="124" y="169" width="9" height="9" fill="#f4a460"/><rect x="133" y="169" width="9" height="9" fill="#f4a460"/><rect x="142" y="169" width="9" height="9" fill="#f4a460"/><rect x="151" y="169" width="9" height="9" fill="#f4a460"/><rect x="160" y="169" width="9" height="9" fill="#8b5e3c"/><rect x="52" y="178" width="9" height="9" fill="#8b5e3c"/><rect x="61" y="178" width="9" height="9" fill="#f4a460"/><rect x="70" y="178" width="9" height="9" fill="#f4a460"/><rect x="79" y="178" width="9" height="9" fill="#f4a460"/><rect x="88" y="178" width="9" height="9" fill="#f4a460"/><rect x="97" y="178" width="9" height="9" fill="#f4a460"/><rect x="106" y="178" width="9" height="9" fill="#f4a460"/><rect x="115" y="178" width="9" height="9" fill="#f4a460"/><rect x="124" y="178" width="9" height="9" fill="#f4a460"/><rect x="133" y="178" width="9" height="9" fill="#f4a460"/><rect x="142" y="178" width="9" height="9" fill="#f4a460"/><rect x="151" y="178" width="9" height="9" fill="#8b5e3c"/><rect x="61" y="187" width="9" height="9" fill="#8b5e3c"/><rect x="70" y="187" width="9" height="9" fill="#8b5e3c"/><rect x="79" y="187" width="9" height="9" fill="#f4a460"/><rect x="88" y="187" width="9" height="9" fill="#f4a460"/><rect x="97" y="187" width="9" height="9" fill="#f4a460"/><rect x="106" y="187" width="9" height="9" fill="#f4a460"/><rect x="115" y="187" width="9" height="9" fill="#f4a460"/><rect x="124" y="187" width="9" height="9" fill="#f4a460"/><rect x="133" y="187" width="9" height="9" fill="#8b5e3c"/><rect x="142" y="187" width="9" height="9" fill="#8b5e3c"/><rect x="79" y="196" width="9" height="9" fill="#8b5e3c"/><rect x="88" y="196" width="9" height="9" fill="#8b5e3c"/><rect x="97" y="196" width="9" height="9" fill="#8b5e3c"/><rect x="106" y="196" width="9" height="9" fill="#8b5e3c"/><rect x="115" y="196" width="9" height="9" fill="#8b5e3c"/><rect x="124" y="196" width="9" height="9" fill="#8b5e3c"/>
      <animateTransform attributeName="transform" type="translate" values="0 0; 0 -5; 0 0" dur="3s" repeatCount="indefinite"/>
    </g>
    <text x="106" y="238" text-anchor="middle" font-family="'Courier New',monospace" font-size="11" font-weight="bold" fill="#2a5a2a">HAPPY</text>

    <text x="240" y="74" font-family="'Courier New',monospace" font-size="16" font-weight="bold" fill="#0f380f">@Cludes</text>
    <text x="240" y="92" font-family="'Courier New',monospace" font-size="11" font-weight="bold" fill="#2a5a2a">ADULT HAMSTER</text>

    <rect x="426" y="56" width="44" height="34" rx="4" fill="none" stroke="#0f380f" stroke-width="2"/>
    <text x="448" y="71" text-anchor="middle" font-family="'Courier New',monospace" font-size="8" fill="#2a5a2a">LVL</text>
    <text x="448" y="85" text-anchor="middle" font-family="'Courier New',monospace" font-size="14" font-weight="bold" fill="#0f380f">3</text>

    <rect x="240" y="104" width="230" height="8" fill="#8bac0f" stroke="#0f380f" stroke-width="2"/>
    <rect x="240" y="104" width="108" height="8" fill="#0f380f"/>
    <text x="240" y="126" font-family="'Courier New',monospace" font-size="9" fill="#2a5a2a">XP 47/100</text>

    <text x="240" y="146" font-family="'Courier New',monospace" font-size="11" font-weight="bold" fill="#0f380f">HUNGER</text><rect x="296" y="138" width="13" height="9" fill="#0f380f" stroke="#2a5a2a" stroke-width="1"/><rect x="311" y="138" width="13" height="9" fill="#0f380f" stroke="#2a5a2a" stroke-width="1"/><rect x="326" y="138" width="13" height="9" fill="#0f380f" stroke="#2a5a2a" stroke-width="1"/><rect x="341" y="138" width="13" height="9" fill="#0f380f" stroke="#2a5a2a" stroke-width="1"/><rect x="356" y="138" width="13" height="9" fill="#0f380f" stroke="#2a5a2a" stroke-width="1"/><rect x="371" y="138" width="13" height="9" fill="#0f380f" stroke="#2a5a2a" stroke-width="1"/><rect x="386" y="138" width="13" height="9" fill="#0f380f" stroke="#2a5a2a" stroke-width="1"/><rect x="401" y="138" width="13" height="9" fill="#0f380f" stroke="#2a5a2a" stroke-width="1"/><rect x="416" y="138" width="13" height="9" fill="#0f380f" stroke="#2a5a2a" stroke-width="1"/><rect x="431" y="138" width="13" height="9" fill="#0f380f" stroke="#2a5a2a" stroke-width="1"/>
    <text x="240" y="164" font-family="'Courier New',monospace" font-size="11" font-weight="bold" fill="#0f380f">HAPPY</text><rect x="296" y="156" width="13" height="9" fill="#0f380f" stroke="#2a5a2a" stroke-width="1"/><rect x="311" y="156" width="13" height="9" fill="#0f380f" stroke="#2a5a2a" stroke-width="1"/><rect x="326" y="156" width="13" height="9" fill="#0f380f" stroke="#2a5a2a" stroke-width="1"/><rect x="341" y="156" width="13" height="9" fill="#0f380f" stroke="#2a5a2a" stroke-width="1"/><rect x="356" y="156" width="13" height="9" fill="#0f380f" stroke="#2a5a2a" stroke-width="1"/><rect x="371" y="156" width="13" height="9" fill="#0f380f" stroke="#2a5a2a" stroke-width="1"/><rect x="386" y="156" width="13" height="9" fill="#8bac0f" stroke="#2a5a2a" stroke-width="1"/><rect x="401" y="156" width="13" height="9" fill="#8bac0f" stroke="#2a5a2a" stroke-width="1"/><rect x="416" y="156" width="13" height="9" fill="#8bac0f" stroke="#2a5a2a" stroke-width="1"/><rect x="431" y="156" width="13" height="9" fill="#8bac0f" stroke="#2a5a2a" stroke-width="1"/>
    <text x="240" y="182" font-family="'Courier New',monospace" font-size="11" font-weight="bold" fill="#0f380f">HEALTH</text><rect x="296" y="174" width="13" height="9" fill="#0f380f" stroke="#2a5a2a" stroke-width="1"/><rect x="311" y="174" width="13" height="9" fill="#0f380f" stroke="#2a5a2a" stroke-width="1"/><rect x="326" y="174" width="13" height="9" fill="#0f380f" stroke="#2a5a2a" stroke-width="1"/><rect x="341" y="174" width="13" height="9" fill="#0f380f" stroke="#2a5a2a" stroke-width="1"/><rect x="356" y="174" width="13" height="9" fill="#0f380f" stroke="#2a5a2a" stroke-width="1"/><rect x="371" y="174" width="13" height="9" fill="#0f380f" stroke="#2a5a2a" stroke-width="1"/><rect x="386" y="174" width="13" height="9" fill="#0f380f" stroke="#2a5a2a" stroke-width="1"/><rect x="401" y="174" width="13" height="9" fill="#0f380f" stroke="#2a5a2a" stroke-width="1"/><rect x="416" y="174" width="13" height="9" fill="#0f380f" stroke="#2a5a2a" stroke-width="1"/><rect x="431" y="174" width="13" height="9" fill="#8bac0f" stroke="#2a5a2a" stroke-width="1"/>

    <line x1="240" y1="196" x2="470" y2="196" stroke="#2a5a2a" stroke-width="1"/>
    <text x="240" y="216" font-family="'Courier New',monospace" font-size="11" font-weight="bold" fill="#0f380f">STREAK 1</text>
    <text x="350" y="216" font-family="'Courier New',monospace" font-size="11" font-weight="bold" fill="#0f380f">LAST TODAY</text>
    <text x="240" y="234" font-family="'Courier New',monospace" font-size="10" fill="#2a5a2a">43 TOTAL COMMITS</text>
  </g>
</svg>
